<svg width="40.000000" height="40.000000" viewBox="0 0 40 40" fill="none" xmlns="http://www.w3.org/2000/svg" xmlns:xlink="http://www.w3.org/1999/xlink">
	<desc>
			Created with Pixso.
	</desc>
	<defs>
		<clipPath id="clip26_87">
			<rect id="function=repair" rx="-0.500000" width="39.000000" height="39.000000" transform="translate(0.500000 0.500000)" fill="white" fill-opacity="0"/>
		</clipPath>
	</defs>
	<rect id="function=repair" rx="-0.500000" width="39.000000" height="39.000000" transform="translate(0.500000 0.500000)" fill="#FFFFFF" fill-opacity="0"/>
	<g clip-path="url(#clip26_87)">
		<rect id="Rectangle 20" y="16.666748" width="23.333332" height="23.333334" fill="#7595FD" fill-opacity="1.000000"/>
		<path id="Vector" d="M30 26.66L26.66 26.66L26.66 25L13.33 25L13.33 26.66L10 26.66L10 25L3.33 25L3.33 33.33L36.66 33.33L36.66 25L30 25L30 26.66ZM33.33 13.33L28.33 13.33L28.33 10C28.33 8.16 26.83 6.66 25 6.66L15 6.66C13.16 6.66 11.66 8.16 11.66 10L11.66 13.33L6.66 13.33C4.83 13.33 3.33 14.83 3.33 16.66L3.33 23.33L10 23.33L10 20L13.33 20L13.33 23.33L26.66 23.33L26.66 20L30 20L30 23.33L36.66 23.33L36.66 16.66C36.66 14.83 35.16 13.33 33.33 13.33ZM25 13.33L15 13.33L15 10L25 10L25 13.33Z" fill="#FFFFFF" fill-opacity="1.000000" fill-rule="nonzero"/>
	</g>
</svg>
