<svg width="40.000000" height="40.000000" viewBox="0 0 40 40" fill="none" xmlns="http://www.w3.org/2000/svg" xmlns:xlink="http://www.w3.org/1999/xlink">
	<desc>
			Created with Pixso.
	</desc>
	<defs>
		<clipPath id="clip26_77">
			<rect id="function=renovation" rx="-0.500000" width="39.000000" height="39.000000" transform="translate(0.500000 0.500000)" fill="white" fill-opacity="0"/>
		</clipPath>
	</defs>
	<rect id="function=renovation" rx="-0.500000" width="39.000000" height="39.000000" transform="translate(0.500000 0.500000)" fill="#FFFFFF" fill-opacity="0"/>
	<g clip-path="url(#clip26_77)">
		<rect id="Rectangle 20" y="16.666748" width="23.333332" height="23.333334" fill="#7595FD" fill-opacity="1.000000"/>
		<path id="Vector" d="M32.5 4.99C31.39 5 30.33 5.44 29.55 6.22C28.77 7 28.33 8.06 28.33 9.16C28.33 9.76 28.46 10.32 28.69 10.84L25.43 14.5C24.32 13.74 23.01 13.33 21.66 13.33C20.43 13.33 19.29 13.69 18.3 14.27L14.51 10.48L14.47 10.52C14.8 9.86 15 9.12 15 8.33C15 7.34 14.7 6.37 14.15 5.55C13.6 4.73 12.82 4.09 11.91 3.71C10.99 3.33 9.99 3.23 9.02 3.42C8.05 3.62 7.16 4.09 6.46 4.79C5.76 5.49 5.28 6.38 5.09 7.35C4.9 8.32 5 9.33 5.38 10.24C5.75 11.16 6.39 11.94 7.22 12.49C8.04 13.04 9.01 13.33 10 13.33C10.79 13.33 11.52 13.13 12.19 12.8L12.15 12.84L15.94 16.63C15.33 17.65 15 18.81 15 19.99C15 21.66 15.63 23.16 16.64 24.33L12.34 28.62C11.86 28.43 11.35 28.33 10.83 28.33C8.53 28.33 6.66 30.2 6.66 32.49C6.66 34.79 8.53 36.66 10.83 36.66C13.13 36.66 15 34.79 15 32.49C15 31.96 14.89 31.45 14.7 30.98L19.43 26.25C20.13 26.5 20.88 26.66 21.66 26.66C25.34 26.66 28.33 23.67 28.33 19.99C28.33 18.93 28.06 17.95 27.62 17.05L31.14 13.08C31.57 13.23 32.02 13.33 32.5 13.33C34.79 13.33 36.66 11.46 36.66 9.16C36.66 6.86 34.79 4.99 32.5 4.99ZM21.66 23.33C19.82 23.33 18.33 21.83 18.33 19.99C18.33 18.16 19.82 16.66 21.66 16.66C23.5 16.66 25 18.16 25 19.99C25 21.83 23.5 23.33 21.66 23.33Z" fill="#FFFFFF" fill-opacity="1.000000" fill-rule="nonzero"/>
	</g>
</svg>
