<svg width="32.633362" height="32.633362" viewBox="0 0 32.6334 32.6334" fill="none" xmlns="http://www.w3.org/2000/svg" xmlns:xlink="http://www.w3.org/1999/xlink">
	<desc>
			Created with Pixso.
	</desc>
	<defs/>
	<path id="Vector" d="M32.63 24.75L23.38 15.5L26 12.88L19.75 6.63L17.13 9.25L7.88 0L0 7.88L9.25 17.13L1.31 25.06L1.31 31.31L7.56 31.31L15.5 23.38L24.75 32.63L32.63 24.75ZM11.61 14.76L4.71 7.88L7.88 4.71L10 6.83L8.01 8.81L10.36 11.16L12.35 9.18L14.76 11.6L11.61 14.76ZM17.86 21.01L21.03 17.85L23.45 20.26L21.46 22.25L23.81 24.6L25.8 22.61L27.91 24.73L24.75 27.9L17.86 21.01ZM21.53 4.85L25.76 0.62L32.01 6.87L27.78 11.1L21.53 4.85Z" fill="#F9995D" fill-opacity="1.000000" fill-rule="nonzero"/>
</svg>
