<svg width="36.666626" height="36.664856" viewBox="0 0 36.6666 36.6649" fill="none" xmlns="http://www.w3.org/2000/svg" xmlns:xlink="http://www.w3.org/1999/xlink">
	<desc>
			Created with Pixso.
	</desc>
	<defs/>
	<path id="Vector" d="M33.33 11.66C34.21 11.66 35.06 12.01 35.69 12.64C36.31 13.26 36.66 14.11 36.66 14.99L36.66 21.66C36.66 22.54 36.31 23.39 35.69 24.02C35.06 24.64 34.21 24.99 33.33 24.99L31.56 24.99C31.15 28.22 29.58 31.18 27.15 33.33C24.71 35.47 21.58 36.66 18.33 36.66L18.33 33.33C20.98 33.33 23.52 32.27 25.4 30.4C27.27 28.52 28.33 25.98 28.33 23.33L28.33 13.33C28.33 10.67 27.27 8.13 25.4 6.26C23.52 4.38 20.98 3.33 18.33 3.33C15.68 3.33 13.13 4.38 11.26 6.26C9.38 8.13 8.33 10.67 8.33 13.33L8.33 24.99L3.33 24.99C2.44 24.99 1.6 24.64 0.97 24.02C0.35 23.39 0 22.54 0 21.66L0 14.99C0 14.11 0.35 13.26 0.97 12.64C1.6 12.01 2.44 11.66 3.33 11.66L5.1 11.66C5.51 8.44 7.07 5.48 9.51 3.33C11.95 1.18 15.08 0 18.33 0C21.58 0 24.71 1.18 27.15 3.33C29.58 5.48 31.15 8.44 31.56 11.66L33.33 11.66ZM11.26 24.63L13.03 21.81C14.62 22.8 16.45 23.33 18.33 23.33C20.2 23.33 22.04 22.8 23.63 21.81L25.4 24.63C23.28 25.96 20.83 26.66 18.33 26.66C15.83 26.66 13.38 25.96 11.26 24.63Z" fill="#F9995D" fill-opacity="1.000000" fill-rule="nonzero"/>
</svg>
